<svg width="32" height="40" viewBox="0 0 32 40" fill="none" xmlns="http://www.w3.org/2000/svg">
<path d="M0 34V30H4V16C4 13.2333 4.83333 10.7833 6.5 8.65C8.16667 6.48333 10.3333 5.06666 13 4.4V3C13 2.16667 13.2833 1.46667 13.85 0.899998C14.45 0.299999 15.1667 0 16 0C16.8333 0 17.5333 0.299999 18.1 0.899998C18.7 1.46667 19 2.16667 19 3V4.4C21.6667 5.06666 23.8333 6.48333 25.5 8.65C27.1667 10.7833 28 13.2333 28 16V30H32V34H0ZM16 40C14.9 40 13.95 39.6167 13.15 38.85C12.3833 38.05 12 37.1 12 36H20C20 37.1 19.6 38.05 18.8 38.85C18.0333 39.6167 17.1 40 16 40ZM8 30H24V16C24 13.8 23.2167 11.9167 21.65 10.35C20.0833 8.78333 18.2 8 16 8C13.8 8 11.9167 8.78333 10.35 10.35C8.78333 11.9167 8 13.8 8 16V30Z" fill="#49454F"/>
</svg>
