<svg width="41" height="40" viewBox="0 0 41 40" fill="none" xmlns="http://www.w3.org/2000/svg">
<path d="M14.6 40L13.8 33.6C13.3667 33.4333 12.9583 33.2333 12.575 33C12.1917 32.7667 11.8167 32.5167 11.45 32.25L5.5 34.75L0 25.25L5.15 21.35C5.11667 21.1167 5.1 20.8917 5.1 20.675V19.325C5.1 19.1083 5.11667 18.8833 5.15 18.65L0 14.75L5.5 5.25L11.45 7.75C11.8167 7.48333 12.2 7.23333 12.6 7C13 6.76667 13.4 6.56667 13.8 6.4L14.6 0H25.6L26.4 6.4C26.8333 6.56667 27.2417 6.76667 27.625 7C28.0083 7.23333 28.3833 7.48333 28.75 7.75L34.7 5.25L40.2 14.75L35.05 18.65C35.0833 18.8833 35.1 19.1083 35.1 19.325V20.675C35.1 20.8917 35.0667 21.1167 35 21.35L40.15 25.25L34.65 34.75L28.75 32.25C28.3833 32.5167 28 32.7667 27.6 33C27.2 33.2333 26.8 33.4333 26.4 33.6L25.6 40H14.6ZM18.1 36H22.05L22.75 30.7C23.7833 30.4333 24.7417 30.0417 25.625 29.525C26.5083 29.0083 27.3167 28.3833 28.05 27.65L33 29.7L34.95 26.3L30.65 23.05C30.8167 22.5833 30.9333 22.0917 31 21.575C31.0667 21.0583 31.1 20.5333 31.1 20C31.1 19.4667 31.0667 18.9417 31 18.425C30.9333 17.9083 30.8167 17.4167 30.65 16.95L34.95 13.7L33 10.3L28.05 12.4C27.3167 11.6333 26.5083 10.9917 25.625 10.475C24.7417 9.95833 23.7833 9.56667 22.75 9.3L22.1 4H18.15L17.45 9.3C16.4167 9.56667 15.4583 9.95833 14.575 10.475C13.6917 10.9917 12.8833 11.6167 12.15 12.35L7.2 10.3L5.25 13.7L9.55 16.9C9.38333 17.4 9.26667 17.9 9.2 18.4C9.13333 18.9 9.1 19.4333 9.1 20C9.1 20.5333 9.13333 21.05 9.2 21.55C9.26667 22.05 9.38333 22.55 9.55 23.05L5.25 26.3L7.2 29.7L12.15 27.6C12.8833 28.3667 13.6917 29.0083 14.575 29.525C15.4583 30.0417 16.4167 30.4333 17.45 30.7L18.1 36ZM20.2 27C22.1333 27 23.7833 26.3167 25.15 24.95C26.5167 23.5833 27.2 21.9333 27.2 20C27.2 18.0667 26.5167 16.4167 25.15 15.05C23.7833 13.6833 22.1333 13 20.2 13C18.2333 13 16.575 13.6833 15.225 15.05C13.875 16.4167 13.2 18.0667 13.2 20C13.2 21.9333 13.875 23.5833 15.225 24.95C16.575 26.3167 18.2333 27 20.2 27Z" fill="#49454F"/>
</svg>
