<svg width="40" height="37" viewBox="0 0 40 37" fill="none" xmlns="http://www.w3.org/2000/svg">
<path d="M20 36.7L17.1 34.1C13.7333 31.0667 10.95 28.45 8.75 26.25C6.55 24.05 4.8 22.0833 3.5 20.35C2.2 18.5833 1.28333 16.9667 0.75 15.5C0.25 14.0333 0 12.5333 0 11C0 7.86667 1.05 5.25 3.15 3.15C5.25 1.05 7.86667 0 11 0C12.7333 0 14.3833 0.366667 15.95 1.1C17.5167 1.83333 18.8667 2.86667 20 4.2C21.1333 2.86667 22.4833 1.83333 24.05 1.1C25.6167 0.366667 27.2667 0 29 0C32.1333 0 34.75 1.05 36.85 3.15C38.95 5.25 40 7.86667 40 11C40 12.5333 39.7333 14.0333 39.2 15.5C38.7 16.9667 37.8 18.5833 36.5 20.35C35.2 22.0833 33.45 24.05 31.25 26.25C29.05 28.45 26.2667 31.0667 22.9 34.1L20 36.7ZM20 31.3C23.2 28.4333 25.8333 25.9833 27.9 23.95C29.9667 21.8833 31.6 20.1 32.8 18.6C34 17.0667 34.8333 15.7167 35.3 14.55C35.7667 13.35 36 12.1667 36 11C36 9 35.3333 7.33333 34 6C32.6667 4.66667 31 4 29 4C27.4333 4 25.9833 4.45 24.65 5.35C23.3167 6.21667 22.4 7.33333 21.9 8.7H18.1C17.6 7.33333 16.6833 6.21667 15.35 5.35C14.0167 4.45 12.5667 4 11 4C9 4 7.33333 4.66667 6 6C4.66667 7.33333 4 9 4 11C4 12.1667 4.23333 13.35 4.7 14.55C5.16667 15.7167 6 17.0667 7.2 18.6C8.4 20.1 10.0333 21.8833 12.1 23.95C14.1667 25.9833 16.8 28.4333 20 31.3Z" fill="#49454F"/>
</svg>
