<svg width="20" height="33" viewBox="0 0 20 33" fill="none" xmlns="http://www.w3.org/2000/svg">
<path d="M1.53488 33L5.83256 11.3581L3.06977 12.4326V17.6512H0V10.4372L7.75116 7.13721C8.1093 6.98372 8.48663 6.89419 8.88314 6.8686C9.27965 6.84302 9.65698 6.89419 10.0151 7.02209C10.3733 7.15 10.7122 7.32907 11.032 7.5593C11.3517 7.78954 11.614 8.08372 11.8186 8.44186L13.3535 10.8977C14.0186 11.9721 14.9204 12.8547 16.0587 13.5453C17.1971 14.236 18.4953 14.5814 19.9535 14.5814V17.6512C18.1628 17.6512 16.564 17.2802 15.157 16.5384C13.75 15.7965 12.5477 14.85 11.55 13.6988L10.5907 18.4186L13.814 21.4884V33H10.7442V23.0233L7.52093 20.5674L4.75814 33H1.53488ZM11.5116 6.13953C10.6674 6.13953 9.94477 5.83895 9.34361 5.23779C8.74244 4.63663 8.44186 3.91395 8.44186 3.06977C8.44186 2.22558 8.74244 1.50291 9.34361 0.901744C9.94477 0.300581 10.6674 0 11.5116 0C12.3558 0 13.0785 0.300581 13.6797 0.901744C14.2808 1.50291 14.5814 2.22558 14.5814 3.06977C14.5814 3.91395 14.2808 4.63663 13.6797 5.23779C13.0785 5.83895 12.3558 6.13953 11.5116 6.13953Z" fill="#6750A4"/>
</svg>
