<svg width="27" height="30" viewBox="0 0 27 30" fill="none" xmlns="http://www.w3.org/2000/svg">
<path d="M9 21.75C7.95 21.75 7.0625 21.3875 6.3375 20.6625C5.6125 19.9375 5.25 19.05 5.25 18C5.25 16.95 5.6125 16.0625 6.3375 15.3375C7.0625 14.6125 7.95 14.25 9 14.25C10.05 14.25 10.9375 14.6125 11.6625 15.3375C12.3875 16.0625 12.75 16.95 12.75 18C12.75 19.05 12.3875 19.9375 11.6625 20.6625C10.9375 21.3875 10.05 21.75 9 21.75ZM3 30C2.175 30 1.46875 29.7063 0.88125 29.1188C0.29375 28.5312 0 27.825 0 27V6C0 5.175 0.29375 4.46875 0.88125 3.88125C1.46875 3.29375 2.175 3 3 3H4.5V0H7.5V3H19.5V0H22.5V3H24C24.825 3 25.5312 3.29375 26.1188 3.88125C26.7063 4.46875 27 5.175 27 6V27C27 27.825 26.7063 28.5312 26.1188 29.1188C25.5312 29.7063 24.825 30 24 30H3ZM3 27H24V12H3V27Z" fill="#6750A4"/>
</svg>
