<svg width="39" height="34" viewBox="0 0 39 34" fill="none" xmlns="http://www.w3.org/2000/svg">
<path d="M34.1694 4.33914C33.3077 3.47699 32.2845 2.79308 31.1584 2.32646C30.0322 1.85985 28.8252 1.61968 27.6062 1.61968C26.3873 1.61968 25.1802 1.85985 24.0541 2.32646C22.928 2.79308 21.9048 3.47699 21.0431 4.33914L19.2546 6.12756L17.4662 4.33914C15.7255 2.59848 13.3647 1.62058 10.903 1.62058C8.44135 1.62058 6.08051 2.59848 4.33984 4.33914C2.59918 6.0798 1.62129 8.44065 1.62129 10.9023C1.62129 13.364 2.59918 15.7248 4.33984 17.4655L19.2546 32.3803L34.1694 17.4655C35.0316 16.6038 35.7155 15.5806 36.1821 14.4545C36.6487 13.3283 36.8889 12.1213 36.8889 10.9023C36.8889 9.68334 36.6487 8.47631 36.1821 7.35018C35.7155 6.22405 35.0316 5.20088 34.1694 4.33914Z" stroke="#F5F5F5" stroke-width="1.6" stroke-linecap="round" stroke-linejoin="round"/>
</svg>
