<svg width="40" height="28" viewBox="0 0 40 28" fill="none" xmlns="http://www.w3.org/2000/svg">
<path d="M4 28C2.9 28 1.95833 27.6083 1.175 26.825C0.391667 26.0417 0 25.1 0 24V4C0 2.9 0.391667 1.95833 1.175 1.175C1.95833 0.391667 2.9 0 4 0H36C37.1 0 38.0417 0.391667 38.825 1.175C39.6083 1.95833 40 2.9 40 4V24C40 25.1 39.6083 26.0417 38.825 26.825C38.0417 27.6083 37.1 28 36 28H4ZM12 22H28V18H12V22ZM6 16H10V12H6V16ZM12 16H16V12H12V16ZM18 16H22V12H18V16ZM24 16H28V12H24V16ZM30 16H34V12H30V16ZM6 10H10V6H6V10ZM12 10H16V6H12V10ZM18 10H22V6H18V10ZM24 10H28V6H24V10ZM30 10H34V6H30V10Z" fill="#49454F"/>
</svg>
